<?xml version="1.0" standalone="no"?><!DOCTYPE svg PUBLIC "-//W3C//DTD SVG 1.1//EN" "http://www.w3.org/Graphics/SVG/1.1/DTD/svg11.dtd"><svg t="1665926835733" class="icon" viewBox="0 0 1024 1024" version="1.1" xmlns="http://www.w3.org/2000/svg" p-id="42609" xmlns:xlink="http://www.w3.org/1999/xlink" width="128" height="128"><path d="M913.1 129.6c38.2 0 69.3 31.1 69.3 69.3v546.3c0 38.2-31.1 69.3-69.2 69.3l-321.2-0.3h-17.3l-12.2 12.2-50.5 50.8-50.6-50.6-12.2-12.2H110.9c-38.2 0-69.3-31.1-69.3-69.3V198.9c0-38.2 31.1-69.3 69.3-69.3h802.2m0-41.6H110.9C49.6 88 0 137.6 0 198.9v546.3C0 806.4 49.6 856 110.9 856H432l80 80 80-80.3 321.1 0.3c61.2 0 110.9-49.6 110.9-110.9V198.9C1024 137.6 974.4 88 913.1 88z" p-id="42610" fill="#ffffff"></path></svg>